<?xml version="1.0" encoding="utf-8"?>
<!-- Generator: Adobe Illustrator 14.0.0, SVG Export Plug-In . SVG Version: 6.00 Build 43363)  -->
<!DOCTYPE svg PUBLIC "-//W3C//DTD SVG 1.1//EN" "http://www.w3.org/Graphics/SVG/1.1/DTD/svg11.dtd">
<svg version="1.1" id="Layer_1" xmlns="http://www.w3.org/2000/svg" xmlns:xlink="http://www.w3.org/1999/xlink" x="0px" y="0px"
	 width="841.89px" height="595.28px" viewBox="0 0 841.89 595.28" enable-background="new 0 0 841.89 595.28" xml:space="preserve">
<g>
	<g>
		
			<polygon fill-rule="evenodd" clip-rule="evenodd" fill="#FFFFFF" stroke="#22B647" stroke-width="4.7572" stroke-linecap="round" stroke-linejoin="round" points="
			232.539,282.819 202.644,270.123 202.644,212.974 241.802,229.646 241.802,277.383 		"/>
		<g>
			<polygon fill-rule="evenodd" clip-rule="evenodd" fill="#22B647" points="207.474,222.048 207.474,223.286 203.059,219.488 
				203.059,218.425 207.474,218.394 207.474,219.645 204.395,219.509 			"/>
			<path fill-rule="evenodd" clip-rule="evenodd" fill="#22B647" d="M211.345,225.671l-1.125-0.478v-1.232l1.125,0.477V225.671z
				 M211.345,224.02l-1.125-0.481l-0.004-0.297c0-0.365,0.059-0.635,0.18-0.82c0.122-0.184,0.36-0.341,0.72-0.481
				c0.365-0.14,0.581-0.243,0.648-0.302c0.108-0.099,0.163-0.234,0.163-0.405c0-0.238-0.095-0.486-0.288-0.738
				c-0.194-0.251-0.451-0.45-0.779-0.585c-0.315-0.135-0.576-0.157-0.788-0.067c-0.211,0.085-0.359,0.297-0.436,0.63l-1.134-0.625
				c0.032-0.514,0.257-0.865,0.67-1.054c0.415-0.189,0.963-0.139,1.639,0.148c0.71,0.302,1.273,0.729,1.692,1.278
				c0.423,0.549,0.629,1.067,0.629,1.562c0,0.27-0.076,0.495-0.229,0.675c-0.153,0.176-0.482,0.369-0.986,0.572
				c-0.261,0.108-0.423,0.212-0.486,0.315C211.367,223.452,211.335,223.673,211.345,224.02z"/>
			<polygon fill-rule="evenodd" clip-rule="evenodd" fill="#22B647" points="214.932,227.202 213.487,226.585 215.17,224.897 
				213.559,221.949 215.066,222.588 215.891,224.227 216.768,223.313 218.213,223.93 216.628,225.469 218.357,228.66 
				216.854,228.021 215.891,226.162 			"/>
			<path fill-rule="evenodd" clip-rule="evenodd" fill="#22B647" d="M218.946,228.912v-4.667l1.135,0.482v0.634
				c0.405-0.315,0.891-0.356,1.453-0.117c0.297,0.13,0.558,0.302,0.779,0.518c0.216,0.216,0.396,0.481,0.54,0.787
				c0.203-0.162,0.423-0.252,0.662-0.274c0.239-0.023,0.491,0.022,0.761,0.14c0.342,0.144,0.634,0.337,0.869,0.58
				c0.239,0.239,0.418,0.518,0.535,0.837c0.086,0.234,0.126,0.577,0.126,1.022v2.98l-1.234-0.527v-2.665
				c0-0.459-0.045-0.778-0.126-0.949c-0.117-0.225-0.292-0.387-0.531-0.486c-0.171-0.077-0.333-0.09-0.485-0.05
				c-0.153,0.041-0.266,0.148-0.333,0.32c-0.067,0.175-0.099,0.481-0.099,0.922v2.237l-1.233-0.521v-2.557
				c0-0.454-0.022-0.756-0.067-0.904c-0.041-0.153-0.113-0.279-0.203-0.383c-0.094-0.104-0.216-0.189-0.374-0.256
				c-0.193-0.081-0.364-0.103-0.513-0.063c-0.153,0.036-0.266,0.135-0.329,0.301c-0.068,0.167-0.099,0.472-0.099,0.918v2.269
				L218.946,228.912z"/>
			<polygon fill-rule="evenodd" clip-rule="evenodd" fill="#22B647" points="228.372,232.927 227.139,232.4 227.139,225.96 
				228.372,226.486 			"/>
			<path fill-rule="evenodd" clip-rule="evenodd" fill="#22B647" d="M234.488,235.533l-1.112-0.473l-1.885-5.473l1.3,0.549
				l0.878,2.759l0.257,0.905c0.067-0.171,0.107-0.288,0.126-0.342c0.041-0.117,0.085-0.229,0.135-0.342l0.891-2.002l1.27,0.54
				L234.488,235.533z"/>
			<path fill-rule="evenodd" clip-rule="evenodd" fill="#22B647" d="M237.976,234.291l1.846,0.787
				c-0.009-0.364-0.104-0.675-0.28-0.936c-0.175-0.261-0.387-0.446-0.639-0.553c-0.271-0.117-0.491-0.113-0.666,0.013
				C238.062,233.724,237.972,233.953,237.976,234.291z M239.75,236.298l1.234,0.734c-0.158,0.383-0.41,0.621-0.752,0.711
				c-0.341,0.09-0.77,0.027-1.283-0.193c-0.81-0.346-1.413-0.864-1.8-1.562c-0.311-0.559-0.464-1.162-0.464-1.81
				c0-0.773,0.203-1.296,0.607-1.562c0.405-0.266,0.914-0.27,1.535-0.004c0.693,0.292,1.242,0.756,1.643,1.387
				c0.401,0.63,0.594,1.418,0.577,2.358l-3.093-1.319c0.009,0.369,0.108,0.697,0.297,0.982c0.193,0.288,0.427,0.49,0.711,0.612
				c0.193,0.081,0.355,0.099,0.486,0.049C239.583,236.631,239.683,236.501,239.75,236.298z"/>
			<polygon fill-rule="evenodd" clip-rule="evenodd" fill="#22B647" points="207.474,231.041 207.474,232.279 203.059,228.48 
				203.059,227.418 207.474,227.386 207.474,228.637 204.395,228.502 			"/>
			<polygon fill-rule="evenodd" clip-rule="evenodd" fill="#22B647" points="209.886,234.047 208.68,233.53 208.68,227.094 
				210.633,227.926 211.79,232.81 212.929,228.903 214.887,229.736 214.887,236.177 213.681,235.664 213.676,230.591 
				212.407,235.119 211.156,234.588 209.891,228.979 			"/>
			<path fill-rule="evenodd" clip-rule="evenodd" fill="#22B647" d="M216.867,234.696c0,0.464,0.108,0.864,0.329,1.206
				c0.22,0.342,0.49,0.581,0.814,0.715c0.32,0.135,0.59,0.131,0.806-0.022c0.22-0.158,0.329-0.468,0.329-0.937
				c0-0.459-0.108-0.855-0.329-1.197c-0.216-0.337-0.485-0.576-0.806-0.716c-0.325-0.135-0.594-0.126-0.814,0.027
				C216.975,233.926,216.867,234.232,216.867,234.696z M215.598,234.088c0-0.41,0.104-0.765,0.302-1.062
				c0.203-0.298,0.49-0.469,0.859-0.513c0.374-0.045,0.788,0.031,1.243,0.225c0.707,0.302,1.283,0.779,1.737,1.427
				c0.451,0.653,0.676,1.328,0.676,2.03c0,0.707-0.23,1.198-0.685,1.468c-0.454,0.27-1.026,0.261-1.719-0.036
				c-0.428-0.18-0.837-0.455-1.224-0.81c-0.387-0.36-0.684-0.77-0.887-1.229C215.701,235.124,215.598,234.628,215.598,234.088z"/>
			<path fill-rule="evenodd" clip-rule="evenodd" fill="#22B647" d="M222.728,237.095c0,0.5,0.067,0.891,0.207,1.175
				c0.198,0.405,0.477,0.688,0.833,0.837c0.283,0.122,0.522,0.104,0.725-0.054c0.198-0.158,0.297-0.477,0.297-0.958
				c0-0.541-0.095-0.968-0.289-1.288c-0.194-0.32-0.441-0.545-0.743-0.67c-0.292-0.126-0.536-0.113-0.733,0.036
				S222.728,236.631,222.728,237.095z M226.022,234.48v6.445l-1.143-0.487v-0.688c-0.189,0.184-0.418,0.292-0.675,0.314
				c-0.261,0.023-0.522-0.023-0.788-0.135c-0.54-0.229-0.999-0.643-1.381-1.237c-0.383-0.599-0.577-1.283-0.577-2.057
				c0-0.792,0.185-1.314,0.558-1.566c0.374-0.256,0.846-0.261,1.414-0.018c0.526,0.225,0.976,0.63,1.359,1.229v-2.322
				L226.022,234.48z"/>
			<path fill-rule="evenodd" clip-rule="evenodd" fill="#22B647" d="M231.369,243.203l-1.144-0.486v-0.698
				c-0.171,0.175-0.391,0.279-0.67,0.306c-0.279,0.031-0.571-0.022-0.877-0.153c-0.315-0.135-0.599-0.324-0.846-0.567
				c-0.252-0.244-0.432-0.518-0.545-0.815s-0.167-0.666-0.167-1.107v-2.961l1.233,0.527v2.151c0,0.658,0.022,1.071,0.068,1.238
				c0.045,0.166,0.13,0.319,0.252,0.459c0.117,0.139,0.271,0.247,0.459,0.324c0.211,0.09,0.4,0.112,0.566,0.068
				c0.167-0.041,0.285-0.14,0.347-0.284c0.058-0.145,0.09-0.553,0.09-1.224v-1.972l1.233,0.527V243.203z"/>
			<polygon fill-rule="evenodd" clip-rule="evenodd" fill="#22B647" points="233.777,244.229 232.539,243.702 232.539,237.261 
				233.777,237.783 			"/>
			<path fill-rule="evenodd" clip-rule="evenodd" fill="#22B647" d="M236.176,242.523l1.841,0.787
				c-0.009-0.364-0.099-0.674-0.275-0.936c-0.175-0.261-0.392-0.446-0.639-0.554c-0.271-0.112-0.496-0.112-0.671,0.014
				C236.257,241.956,236.172,242.185,236.176,242.523z M237.945,244.53l1.232,0.733c-0.157,0.383-0.405,0.622-0.747,0.711
				c-0.342,0.089-0.77,0.027-1.283-0.193c-0.81-0.342-1.414-0.864-1.805-1.562c-0.307-0.558-0.459-1.161-0.459-1.81
				c0-0.773,0.202-1.296,0.607-1.562c0.4-0.266,0.914-0.27,1.53-0.005c0.698,0.298,1.243,0.756,1.648,1.387
				c0.4,0.635,0.589,1.418,0.571,2.359l-3.088-1.319c0.009,0.374,0.108,0.697,0.297,0.986c0.189,0.284,0.427,0.486,0.71,0.608
				c0.194,0.081,0.356,0.099,0.486,0.049C237.779,244.864,237.877,244.737,237.945,244.53z"/>
			<polygon fill-rule="evenodd" clip-rule="evenodd" fill="#22B647" points="212.42,242.145 212.42,243.383 208.005,239.584 
				208.005,238.517 212.42,238.49 212.42,239.741 209.341,239.606 			"/>
			<polygon fill-rule="evenodd" clip-rule="evenodd" fill="#22B647" points="214.833,245.151 213.626,244.639 213.626,238.197 
				215.58,239.031 216.737,243.914 217.88,240.007 219.837,240.844 219.837,247.285 218.631,246.772 218.627,241.699 
				217.357,246.227 216.102,245.691 214.837,240.083 			"/>
			<path fill-rule="evenodd" clip-rule="evenodd" fill="#22B647" d="M221.818,245.804c0,0.464,0.107,0.864,0.328,1.207
				c0.221,0.337,0.491,0.576,0.81,0.716c0.324,0.135,0.594,0.125,0.811-0.027c0.221-0.153,0.329-0.463,0.329-0.932
				c0-0.459-0.108-0.86-0.329-1.198c-0.216-0.337-0.486-0.576-0.811-0.715c-0.319-0.136-0.589-0.131-0.81,0.022
				C221.926,245.03,221.818,245.34,221.818,245.804z M220.549,245.196c0-0.409,0.099-0.765,0.302-1.062
				c0.202-0.302,0.491-0.473,0.859-0.518c0.369-0.04,0.783,0.032,1.242,0.23c0.707,0.297,1.283,0.774,1.738,1.426
				c0.45,0.653,0.674,1.328,0.674,2.031c0,0.706-0.229,1.197-0.684,1.467c-0.454,0.27-1.031,0.256-1.719-0.035
				c-0.428-0.186-0.837-0.455-1.224-0.815c-0.387-0.355-0.685-0.765-0.887-1.229C220.648,246.231,220.549,245.732,220.549,245.196z"
				/>
			<path fill-rule="evenodd" clip-rule="evenodd" fill="#22B647" d="M227.678,248.203c0,0.5,0.067,0.891,0.208,1.175
				c0.197,0.405,0.477,0.688,0.832,0.837c0.284,0.121,0.526,0.104,0.725-0.055c0.198-0.157,0.297-0.477,0.297-0.958
				c0-0.54-0.094-0.968-0.288-1.287c-0.193-0.32-0.441-0.544-0.743-0.67c-0.293-0.126-0.536-0.113-0.733,0.036
				C227.777,247.429,227.678,247.74,227.678,248.203z M230.973,245.593v6.441l-1.143-0.486v-0.685
				c-0.189,0.185-0.414,0.289-0.675,0.311c-0.261,0.022-0.522-0.022-0.788-0.135c-0.54-0.229-0.999-0.644-1.382-1.238
				c-0.382-0.599-0.576-1.283-0.576-2.057c0-0.792,0.184-1.314,0.558-1.57c0.373-0.252,0.846-0.257,1.417-0.014
				c0.522,0.225,0.973,0.634,1.355,1.228v-2.322L230.973,245.593z"/>
			<path fill-rule="evenodd" clip-rule="evenodd" fill="#22B647" d="M236.324,254.315l-1.143-0.485v-0.702
				c-0.171,0.18-0.396,0.279-0.675,0.31c-0.275,0.027-0.567-0.022-0.878-0.153c-0.315-0.135-0.594-0.324-0.846-0.572
				c-0.247-0.243-0.432-0.513-0.54-0.81c-0.112-0.297-0.171-0.667-0.171-1.108v-2.961l1.237,0.521v2.151
				c0,0.657,0.023,1.071,0.067,1.238c0.045,0.17,0.127,0.324,0.248,0.459c0.121,0.14,0.275,0.247,0.459,0.329
				c0.212,0.09,0.401,0.112,0.572,0.067c0.167-0.045,0.279-0.14,0.342-0.284c0.063-0.148,0.094-0.553,0.094-1.224v-1.976
				l1.233,0.526V254.315z"/>
			<polygon fill-rule="evenodd" clip-rule="evenodd" fill="#22B647" points="238.728,255.341 237.495,254.815 237.495,248.37 
				238.728,248.896 			"/>
			<polygon fill-rule="evenodd" clip-rule="evenodd" fill="#22B647" points="217.371,253.249 217.371,254.491 212.951,250.688 
				212.951,249.625 217.371,249.598 217.371,250.85 214.288,250.71 			"/>
			<path fill-rule="evenodd" clip-rule="evenodd" fill="#22B647" d="M219.9,250.953v1.638l0.963,0.41
				c0.622,0.27,1.013,0.409,1.171,0.423c0.152,0.013,0.274-0.027,0.364-0.117c0.085-0.095,0.13-0.234,0.13-0.428
				c0-0.221-0.059-0.419-0.176-0.603c-0.112-0.181-0.279-0.338-0.49-0.46c-0.104-0.062-0.419-0.202-0.945-0.427L219.9,250.953z
				 M219.9,256.309l-1.305-0.558v-6.441l2.741,1.171c0.688,0.292,1.188,0.562,1.503,0.814c0.311,0.248,0.562,0.559,0.747,0.937
				c0.189,0.374,0.284,0.751,0.284,1.134c0,0.481-0.145,0.823-0.428,1.017c-0.279,0.194-0.706,0.211-1.269,0.054
				c0.278,0.284,0.513,0.562,0.693,0.833c0.185,0.275,0.428,0.729,0.738,1.364l0.789,1.593l-1.558-0.666l-0.931-1.805
				c-0.338-0.644-0.567-1.053-0.689-1.237c-0.121-0.181-0.257-0.329-0.392-0.432c-0.139-0.108-0.36-0.225-0.657-0.355l-0.266-0.113
				V256.309z"/>
			<path fill-rule="evenodd" clip-rule="evenodd" fill="#22B647" d="M225.819,256.107l1.841,0.787
				c-0.009-0.365-0.099-0.675-0.275-0.936c-0.175-0.261-0.391-0.445-0.643-0.554c-0.266-0.117-0.49-0.112-0.666,0.009
				S225.815,255.769,225.819,256.107z M227.588,258.114l1.233,0.733c-0.158,0.383-0.409,0.621-0.747,0.711
				c-0.342,0.09-0.77,0.027-1.283-0.193c-0.81-0.346-1.413-0.868-1.805-1.566c-0.306-0.559-0.459-1.157-0.459-1.81
				c0-0.774,0.203-1.292,0.608-1.558c0.4-0.27,0.914-0.27,1.53-0.004c0.693,0.293,1.243,0.756,1.643,1.387
				c0.401,0.63,0.594,1.417,0.577,2.358l-3.088-1.319c0.009,0.37,0.108,0.698,0.297,0.981c0.189,0.283,0.427,0.486,0.711,0.607
				c0.193,0.086,0.355,0.099,0.485,0.05C227.422,258.442,227.521,258.316,227.588,258.114z"/>
			<path fill-rule="evenodd" clip-rule="evenodd" fill="#22B647" d="M232.931,259.482c0-0.481-0.099-0.878-0.293-1.198
				c-0.198-0.314-0.441-0.535-0.733-0.661c-0.297-0.126-0.545-0.112-0.748,0.041c-0.198,0.153-0.302,0.486-0.302,1.008
				c0,0.513,0.099,0.927,0.292,1.238c0.194,0.311,0.432,0.527,0.716,0.648c0.283,0.122,0.531,0.099,0.742-0.067
				C232.823,260.324,232.931,259.991,232.931,259.482z M234.128,264.149l-1.233-0.526v-2.331c-0.162,0.139-0.365,0.216-0.608,0.238
				c-0.238,0.018-0.5-0.031-0.778-0.153c-0.531-0.225-0.968-0.612-1.315-1.157c-0.405-0.639-0.607-1.359-0.607-2.161
				c0-0.747,0.188-1.256,0.571-1.512c0.383-0.261,0.855-0.27,1.417-0.027c0.311,0.131,0.581,0.311,0.811,0.54
				c0.225,0.225,0.428,0.509,0.608,0.851v-0.688l1.134,0.486V264.149z"/>
			<path fill-rule="evenodd" clip-rule="evenodd" fill="#22B647" d="M239.479,264.663l-1.147-0.491v-0.697
				c-0.171,0.175-0.392,0.279-0.67,0.305c-0.279,0.032-0.572-0.022-0.878-0.152c-0.315-0.135-0.599-0.324-0.846-0.567
				c-0.252-0.248-0.433-0.518-0.544-0.815c-0.113-0.297-0.167-0.666-0.167-1.107v-2.962l1.233,0.527v2.152
				c0,0.657,0.023,1.07,0.067,1.237c0.045,0.167,0.13,0.319,0.252,0.459c0.117,0.135,0.27,0.248,0.459,0.324
				c0.211,0.09,0.4,0.113,0.567,0.072c0.167-0.045,0.284-0.14,0.347-0.289c0.058-0.144,0.09-0.553,0.09-1.224v-1.971l1.238,0.526
				V264.663z"/>
		</g>
	</g>
	<g>
		<g>
			<path fill-rule="evenodd" clip-rule="evenodd" fill="#FBE0E2" d="M220.198,250.049c0-6.104-1.157-8.845-6.927-10.942
				l-54.66-22.59c-8.083-1.021-19.632,2.439-23.48,9.979v74.081c0,6.107,3.466,9.303,8.854,11.769l51.193,21.92
				c8.854,2.197,25.021-3.798,25.021-11.459V250.049z"/>
			<path fill-rule="evenodd" clip-rule="evenodd" fill="#F4A3A8" d="M194.407,251.146c10.01-0.45,28.487-5.608,20.786-11.212
				l-56.582-23.418c-8.083-1.021-23.093,4.627-23.48,10.744v73.316c0,6.107,3.466,9.303,8.854,11.769l51.193,21.92
				C195.177,323.927,194.407,251.146,194.407,251.146z"/>
			
				<path fill-rule="evenodd" clip-rule="evenodd" fill="none" stroke="#C05A68" stroke-width="4.7572" stroke-linecap="round" stroke-linejoin="round" d="
				M220.198,250.049c0-6.104-1.157-8.845-6.927-10.942l-54.66-22.59c-8.083-1.021-19.632,2.439-23.48,9.979v74.081
				c0,6.107,3.466,9.303,8.854,11.769l51.193,21.92c8.854,2.197,25.021-3.798,25.021-11.459V250.049z"/>
			<path fill-rule="evenodd" clip-rule="evenodd" fill="#F4A3A8" d="M217.502,284.427c-5,4.82-11.162,6.922-19.246,7.431v37.146
				c8.854-0.485,14.628-2.214,19.246-7.431V284.427z"/>
		</g>
	</g>
	<g>
		<polygon fill-rule="evenodd" clip-rule="evenodd" fill="#FFFFFF" points="145.766,332.389 115.776,317.396 115.776,260.234 
			155.047,279.872 155.047,323.157 		"/>
		
			<polygon fill-rule="evenodd" clip-rule="evenodd" fill="none" stroke="#1366FE" stroke-width="4.7572" stroke-linecap="round" stroke-linejoin="round" points="
			145.766,333.288 115.776,318.297 115.776,260.234 155.047,279.872 155.047,324.057 		"/>
		<g>
			<polygon fill-rule="evenodd" clip-rule="evenodd" fill="#1366FE" points="122.429,270.582 122.429,271.824 117.996,267.688 
				117.996,266.625 122.429,266.927 122.429,268.178 119.336,267.813 			"/>
			<path fill-rule="evenodd" clip-rule="evenodd" fill="#1366FE" d="M123.631,266.72l1.237,0.616v2.39
				c0.4-0.274,0.883-0.274,1.44,0.005c0.288,0.144,0.544,0.324,0.778,0.544c0.229,0.22,0.401,0.446,0.518,0.667
				c0.117,0.22,0.198,0.445,0.239,0.666c0.044,0.22,0.067,0.54,0.067,0.958v2.737l-1.238-0.621v-2.462
				c0-0.491-0.022-0.81-0.072-0.967c-0.045-0.153-0.13-0.302-0.252-0.441c-0.122-0.135-0.27-0.252-0.45-0.342
				c-0.212-0.104-0.396-0.145-0.558-0.126c-0.162,0.018-0.284,0.108-0.36,0.27c-0.077,0.162-0.113,0.441-0.113,0.833v2.336
				l-1.237-0.617V266.72z"/>
			<path fill-rule="evenodd" clip-rule="evenodd" fill="#1366FE" d="M130.355,271.855l0.851,0.423v0.981l-0.851-0.423v1.891
				c0,0.382,0.009,0.611,0.027,0.684c0.014,0.072,0.054,0.14,0.108,0.211c0.058,0.067,0.13,0.126,0.211,0.167
				c0.112,0.059,0.279,0.099,0.5,0.131l0.104,1.012c-0.288-0.022-0.613-0.121-0.977-0.301c-0.22-0.113-0.423-0.252-0.603-0.414
				c-0.176-0.167-0.311-0.329-0.392-0.491c-0.085-0.162-0.14-0.351-0.176-0.571c-0.027-0.158-0.036-0.455-0.036-0.891v-2.048
				l-0.572-0.283v-0.981l0.572,0.284v-0.928l1.233-0.107V271.855z"/>
			<path fill-rule="evenodd" clip-rule="evenodd" fill="#1366FE" d="M132.132,277.414v-4.672l1.139,0.572v0.634
				c0.41-0.283,0.896-0.288,1.458-0.005c0.302,0.149,0.562,0.338,0.779,0.572c0.22,0.234,0.405,0.509,0.544,0.828
				c0.207-0.144,0.428-0.22,0.667-0.225c0.238-0.004,0.491,0.064,0.76,0.198c0.347,0.171,0.635,0.387,0.874,0.644
				c0.238,0.261,0.414,0.554,0.536,0.882c0.081,0.243,0.126,0.585,0.126,1.031v2.979l-1.238-0.616v-2.665
				c0-0.463-0.04-0.783-0.126-0.963c-0.117-0.229-0.292-0.41-0.531-0.527c-0.175-0.085-0.337-0.117-0.49-0.085
				c-0.153,0.027-0.261,0.126-0.329,0.297c-0.067,0.171-0.103,0.473-0.103,0.914v2.241l-1.238-0.621v-2.556
				c0-0.455-0.022-0.756-0.062-0.91c-0.045-0.153-0.112-0.288-0.208-0.396c-0.09-0.112-0.216-0.207-0.373-0.288
				c-0.193-0.094-0.365-0.13-0.518-0.104c-0.153,0.027-0.261,0.122-0.328,0.279c-0.063,0.162-0.099,0.468-0.099,0.914v2.269
				L132.132,277.414z"/>
			<polygon fill-rule="evenodd" clip-rule="evenodd" fill="#1366FE" points="141.589,282.14 140.352,281.523 140.352,275.078 
				141.589,275.695 			"/>
			<polygon fill-rule="evenodd" clip-rule="evenodd" fill="#1366FE" points="146.806,282.095 142.372,281.807 142.372,280.564 
				145.464,280.893 142.372,278.144 142.372,276.91 146.806,281.037 			"/>
			<polygon fill-rule="evenodd" clip-rule="evenodd" fill="#1366FE" points="127.394,282.068 127.394,283.31 122.964,279.169 
				122.964,278.107 127.394,278.413 127.394,279.665 124.301,279.295 			"/>
			<path fill-rule="evenodd" clip-rule="evenodd" fill="#1366FE" d="M128.595,278.202l1.238,0.622v2.385
				c0.401-0.275,0.882-0.271,1.44,0.009c0.288,0.14,0.545,0.324,0.779,0.544c0.229,0.221,0.405,0.441,0.517,0.667
				c0.117,0.22,0.199,0.441,0.243,0.661c0.041,0.221,0.063,0.541,0.063,0.959v2.737l-1.238-0.617v-2.462
				c0-0.49-0.022-0.814-0.072-0.967c-0.045-0.158-0.13-0.301-0.252-0.441c-0.117-0.14-0.27-0.252-0.45-0.342
				c-0.207-0.104-0.396-0.148-0.558-0.13c-0.162,0.018-0.284,0.108-0.36,0.27c-0.077,0.167-0.113,0.441-0.113,0.833v2.341
				l-1.238-0.621V278.202z"/>
			<path fill-rule="evenodd" clip-rule="evenodd" fill="#1366FE" d="M134.964,285.105l1.845,0.923
				c-0.005-0.365-0.099-0.684-0.274-0.959c-0.176-0.274-0.392-0.472-0.644-0.598c-0.27-0.136-0.491-0.148-0.667-0.041
				C135.049,284.539,134.964,284.764,134.964,285.105z M136.737,287.244l1.237,0.824c-0.158,0.374-0.409,0.589-0.751,0.657
				c-0.342,0.063-0.77-0.032-1.283-0.289c-0.815-0.409-1.418-0.972-1.81-1.701c-0.306-0.581-0.463-1.193-0.463-1.84
				c0-0.779,0.207-1.283,0.612-1.518c0.405-0.238,0.913-0.202,1.535,0.108c0.698,0.347,1.247,0.85,1.647,1.512
				c0.4,0.662,0.594,1.462,0.576,2.399l-3.096-1.548c0.009,0.373,0.108,0.706,0.301,1.003c0.189,0.302,0.428,0.522,0.711,0.662
				c0.194,0.099,0.355,0.126,0.486,0.086C136.571,287.563,136.67,287.442,136.737,287.244z"/>
			<path fill-rule="evenodd" clip-rule="evenodd" fill="#1366FE" d="M141.58,289.152v-0.248c-0.162-0.027-0.409-0.09-0.756-0.185
				c-0.341-0.099-0.567-0.14-0.675-0.126c-0.162,0.037-0.243,0.14-0.243,0.315c0,0.176,0.067,0.356,0.198,0.545
				c0.125,0.193,0.292,0.338,0.49,0.437c0.226,0.112,0.437,0.144,0.64,0.099c0.148-0.036,0.247-0.122,0.297-0.262
				C141.562,289.638,141.58,289.449,141.58,289.152z M139.915,287.078l-1.117-0.761c0.126-0.392,0.342-0.621,0.653-0.685
				c0.307-0.063,0.765,0.054,1.373,0.36c0.554,0.274,0.968,0.544,1.238,0.81c0.27,0.266,0.458,0.526,0.571,0.783
				c0.108,0.256,0.162,0.653,0.162,1.188l-0.018,1.431c0,0.41,0.022,0.72,0.059,0.937c0.04,0.215,0.117,0.458,0.225,0.738
				l-1.228-0.617c-0.032-0.095-0.073-0.234-0.122-0.418l-0.041-0.166c-0.211,0.103-0.436,0.144-0.68,0.13
				c-0.238-0.018-0.495-0.094-0.77-0.229c-0.477-0.243-0.86-0.562-1.134-0.958c-0.28-0.4-0.414-0.801-0.414-1.198
				c0-0.265,0.062-0.468,0.189-0.612c0.126-0.144,0.301-0.211,0.531-0.207c0.224,0.004,0.554,0.072,0.981,0.202
				c0.581,0.18,0.981,0.279,1.206,0.297v-0.122c0-0.243-0.063-0.441-0.18-0.603c-0.117-0.162-0.338-0.324-0.667-0.486
				c-0.22-0.112-0.391-0.152-0.518-0.13C140.095,286.79,139.996,286.893,139.915,287.078z"/>
			<path fill-rule="evenodd" clip-rule="evenodd" fill="#1366FE" d="M144.956,290.399c0,0.5,0.067,0.896,0.207,1.189
				c0.198,0.427,0.478,0.724,0.833,0.904c0.288,0.145,0.527,0.145,0.729,0c0.198-0.143,0.297-0.454,0.297-0.94
				c0-0.536-0.094-0.973-0.288-1.306s-0.441-0.576-0.748-0.729c-0.292-0.145-0.536-0.153-0.733-0.018
				C145.055,289.634,144.956,289.936,144.956,290.399z M148.26,288.032v6.445l-1.148-0.571v-0.684
				c-0.189,0.171-0.418,0.256-0.679,0.261c-0.262,0.004-0.522-0.063-0.788-0.194c-0.54-0.27-0.999-0.715-1.386-1.341
				c-0.382-0.625-0.576-1.328-0.576-2.102c0-0.792,0.185-1.301,0.562-1.525c0.374-0.225,0.846-0.198,1.418,0.09
				c0.522,0.261,0.977,0.707,1.359,1.333v-2.327L148.26,288.032z"/>
			<polygon fill-rule="evenodd" clip-rule="evenodd" fill="#1366FE" points="154.03,294.707 149.596,294.418 149.596,293.176 
				152.688,293.505 149.596,290.755 149.596,289.521 154.03,293.649 			"/>
			<polygon fill-rule="evenodd" clip-rule="evenodd" fill="#1366FE" points="127.394,291.069 127.394,292.312 122.964,288.171 
				122.964,287.109 127.394,287.415 127.394,288.667 124.301,288.297 			"/>
			<polygon fill-rule="evenodd" clip-rule="evenodd" fill="#1366FE" points="128.865,293.892 127.946,293.433 129.554,287.573 
				130.481,288.041 			"/>
			<path fill-rule="evenodd" clip-rule="evenodd" fill="#1366FE" d="M131.305,288.559l1.238,0.616v2.39
				c0.4-0.274,0.882-0.274,1.44,0.005c0.288,0.144,0.544,0.329,0.774,0.549c0.234,0.221,0.405,0.441,0.522,0.667
				c0.117,0.221,0.198,0.441,0.238,0.662c0.045,0.221,0.067,0.541,0.067,0.958v2.736l-1.238-0.616v-2.466
				c0-0.486-0.022-0.811-0.072-0.963c-0.045-0.158-0.13-0.301-0.251-0.441c-0.122-0.14-0.271-0.252-0.451-0.342
				c-0.211-0.103-0.396-0.149-0.558-0.13c-0.167,0.018-0.284,0.108-0.36,0.27c-0.077,0.163-0.112,0.441-0.112,0.833v2.336
				l-1.238-0.617V288.559z"/>
			<path fill-rule="evenodd" clip-rule="evenodd" fill="#1366FE" d="M137.673,295.458l1.846,0.928
				c-0.009-0.365-0.099-0.685-0.275-0.959c-0.176-0.274-0.392-0.473-0.644-0.599c-0.27-0.135-0.491-0.148-0.666-0.041
				C137.759,294.896,137.669,295.121,137.673,295.458z M139.447,297.601l1.237,0.823c-0.157,0.374-0.409,0.589-0.751,0.658
				c-0.341,0.062-0.77-0.032-1.283-0.288c-0.814-0.41-1.417-0.978-1.809-1.702c-0.306-0.581-0.464-1.193-0.464-1.846
				c0-0.774,0.203-1.278,0.608-1.517c0.405-0.234,0.918-0.198,1.54,0.112c0.693,0.347,1.241,0.851,1.646,1.512
				c0.401,0.662,0.595,1.458,0.577,2.399l-3.098-1.548c0.01,0.37,0.109,0.707,0.297,1.004c0.194,0.301,0.428,0.521,0.716,0.661
				c0.189,0.099,0.356,0.126,0.486,0.086C139.28,297.92,139.379,297.799,139.447,297.601z"/>
			<path fill-rule="evenodd" clip-rule="evenodd" fill="#1366FE" d="M144.285,299.509v-0.247c-0.158-0.027-0.409-0.09-0.751-0.189
				c-0.342-0.099-0.567-0.139-0.675-0.121c-0.163,0.036-0.244,0.14-0.244,0.314c0,0.172,0.067,0.355,0.194,0.545
				c0.13,0.193,0.297,0.338,0.495,0.438c0.225,0.111,0.436,0.144,0.639,0.099c0.148-0.036,0.248-0.122,0.297-0.262
				C144.271,299.995,144.285,299.807,144.285,299.509z M142.625,297.434l-1.116-0.76c0.126-0.392,0.342-0.622,0.653-0.685
				c0.306-0.067,0.765,0.054,1.373,0.361c0.554,0.274,0.963,0.544,1.233,0.81c0.274,0.266,0.463,0.526,0.571,0.783
				c0.112,0.256,0.167,0.653,0.167,1.188l-0.019,1.432c0,0.408,0.019,0.72,0.059,0.937c0.041,0.216,0.112,0.458,0.22,0.737
				l-1.229-0.617c-0.031-0.094-0.067-0.233-0.117-0.418l-0.045-0.166c-0.211,0.104-0.437,0.145-0.675,0.126
				c-0.238-0.014-0.495-0.091-0.77-0.226c-0.482-0.242-0.86-0.562-1.134-0.963c-0.279-0.396-0.419-0.797-0.419-1.193
				c0-0.266,0.063-0.467,0.193-0.611c0.126-0.144,0.302-0.211,0.527-0.208c0.229,0,0.558,0.073,0.985,0.203
				c0.581,0.179,0.982,0.278,1.202,0.297v-0.126c0-0.238-0.059-0.441-0.176-0.599c-0.116-0.163-0.342-0.324-0.666-0.491
				c-0.22-0.108-0.396-0.153-0.518-0.125C142.8,297.146,142.701,297.25,142.625,297.434z"/>
			<path fill-rule="evenodd" clip-rule="evenodd" fill="#1366FE" d="M147.661,300.756c0,0.5,0.072,0.896,0.207,1.188
				c0.202,0.423,0.481,0.725,0.837,0.905c0.284,0.144,0.526,0.144,0.725,0c0.202-0.145,0.301-0.461,0.301-0.941
				c0-0.535-0.099-0.973-0.292-1.305c-0.193-0.338-0.44-0.577-0.742-0.73c-0.293-0.147-0.54-0.152-0.738-0.018
				C147.76,299.99,147.661,300.293,147.661,300.756z M150.969,298.389v6.445l-1.147-0.572v-0.684
				c-0.194,0.171-0.419,0.256-0.68,0.261c-0.261,0.005-0.522-0.063-0.788-0.194c-0.54-0.269-1.004-0.715-1.386-1.34
				c-0.387-0.626-0.576-1.328-0.576-2.104c0-0.791,0.185-1.299,0.558-1.524c0.374-0.226,0.847-0.198,1.418,0.09
				c0.526,0.261,0.981,0.706,1.363,1.327v-2.322L150.969,298.389z"/>
			<polygon fill-rule="evenodd" clip-rule="evenodd" fill="#1366FE" points="156.285,304.838 151.851,304.551 151.851,303.308 
				154.944,303.637 151.851,300.887 151.851,299.653 156.285,303.779 			"/>
			<polygon fill-rule="evenodd" clip-rule="evenodd" fill="#1366FE" points="127.394,300.071 127.394,301.314 122.964,297.173 
				122.964,296.111 127.394,296.417 127.394,297.668 124.301,297.299 			"/>
			<path fill-rule="evenodd" clip-rule="evenodd" fill="#1366FE" d="M129.779,300.814c0,0.486,0.077,0.887,0.229,1.192
				c0.216,0.437,0.5,0.748,0.855,0.923c0.275,0.14,0.509,0.14,0.703,0c0.193-0.14,0.288-0.459,0.288-0.959
				c0-0.535-0.095-0.973-0.288-1.305c-0.198-0.338-0.446-0.576-0.748-0.73c-0.297-0.148-0.544-0.156-0.742-0.025
				C129.878,300.045,129.779,300.347,129.779,300.814z M129.707,303.205l-1.147-0.572v-6.445l1.238,0.616v2.327
				c0.382-0.243,0.833-0.233,1.359,0.027c0.568,0.288,1.041,0.729,1.413,1.328c0.374,0.598,0.559,1.282,0.559,2.057
				c0,0.797-0.189,1.318-0.572,1.557c-0.378,0.243-0.841,0.23-1.386-0.045c-0.266-0.135-0.531-0.332-0.792-0.604
				c-0.257-0.266-0.481-0.576-0.671-0.932V303.205z"/>
			<path fill-rule="evenodd" clip-rule="evenodd" fill="#1366FE" d="M135.014,303.533c0,0.464,0.112,0.873,0.333,1.233
				c0.22,0.355,0.49,0.612,0.814,0.774c0.32,0.161,0.59,0.175,0.81,0.035c0.221-0.135,0.33-0.441,0.33-0.909
				c0-0.459-0.108-0.864-0.33-1.22c-0.22-0.355-0.49-0.616-0.81-0.778c-0.324-0.161-0.594-0.171-0.814-0.036
				C135.125,302.768,135.014,303.069,135.014,303.533z M133.744,302.831c0-0.41,0.099-0.756,0.302-1.04
				c0.203-0.283,0.491-0.438,0.865-0.449c0.369-0.019,0.783,0.089,1.242,0.318c0.707,0.352,1.288,0.873,1.742,1.558
				c0.45,0.685,0.68,1.378,0.68,2.079c0,0.711-0.23,1.18-0.689,1.418c-0.455,0.238-1.031,0.185-1.724-0.161
				c-0.427-0.217-0.837-0.519-1.229-0.905c-0.387-0.393-0.684-0.824-0.887-1.297C133.843,303.875,133.744,303.367,133.744,302.831z"
				/>
			<path fill-rule="evenodd" clip-rule="evenodd" fill="#1366FE" d="M140.891,306.373c0,0.5,0.068,0.896,0.208,1.188
				c0.198,0.423,0.477,0.725,0.837,0.904c0.283,0.14,0.527,0.14,0.725,0c0.198-0.144,0.297-0.459,0.297-0.94
				c0-0.54-0.095-0.972-0.288-1.31c-0.194-0.333-0.441-0.576-0.743-0.725c-0.292-0.149-0.54-0.153-0.738-0.019
				S140.891,305.909,140.891,306.373z M144.195,304.006v6.445l-1.143-0.572v-0.688c-0.193,0.17-0.418,0.26-0.68,0.266
				c-0.261,0-0.526-0.063-0.792-0.194c-0.536-0.271-0.999-0.72-1.386-1.346c-0.382-0.626-0.577-1.323-0.577-2.098
				c0-0.792,0.189-1.301,0.563-1.53c0.374-0.225,0.846-0.193,1.418,0.095c0.526,0.261,0.977,0.702,1.36,1.327v-2.322
				L144.195,304.006z"/>
			<path fill-rule="evenodd" clip-rule="evenodd" fill="#1366FE" d="M146.504,311.611l-1.783-5.571l1.314,0.662l1.125,3.874
				l1.099-2.767l1.283,0.642l-1.652,3.67l-0.302,0.66c-0.108,0.223-0.212,0.374-0.311,0.469c-0.099,0.095-0.211,0.153-0.342,0.18
				c-0.126,0.023-0.284,0.015-0.473-0.031c-0.185-0.041-0.396-0.121-0.635-0.238c-0.239-0.121-0.473-0.266-0.702-0.427l-0.108-1.018
				c0.194,0.136,0.37,0.238,0.527,0.319c0.288,0.145,0.5,0.167,0.64,0.067C146.324,312.004,146.433,311.837,146.504,311.611z"/>
			<polygon fill-rule="evenodd" clip-rule="evenodd" fill="#1366FE" points="154.48,312.936 150.046,312.646 150.046,311.404 
				153.139,311.733 150.046,308.984 150.046,307.75 154.48,311.882 			"/>
		</g>
	</g>
	<g>
		<path fill-rule="evenodd" clip-rule="evenodd" fill="#F4A3A8" d="M53.213,269.501v73.257c0,5.199,1.729,6.238,6.774,8.363
			l60.988,28.266c4.384,1.858,12.355-1.57,12.355-6.765V301.75c0-5.193-2.192-6.566-7.575-9.555l-59.39-27.469
			C60.788,262.602,53.213,264.307,53.213,269.501z M86.521,299.721c0-2.979,0.675-2.318,3.83-1.103l28.347,13.804
			c2.821,1.539,3.83,1.814,3.83,4.794v47.475c0,2.977-1.386,3.07-3.83,2.157l-28.347-13.549c-2.696-1.35-3.83-1.817-3.83-4.792
			V299.721z"/>
		
			<path fill-rule="evenodd" clip-rule="evenodd" fill="none" stroke="#C05A68" stroke-width="4.7572" stroke-linecap="round" stroke-linejoin="round" d="
			M86.521,299.721c0-2.979,0.675-2.318,3.83-1.103l28.347,13.804c2.821,1.539,3.83,1.814,3.83,4.794v47.475
			c0,2.977-1.386,3.07-3.83,2.157l-28.347-13.549c-2.696-1.35-3.83-1.817-3.83-4.792V299.721z"/>
		<path fill-rule="evenodd" clip-rule="evenodd" fill="#FBE0E2" d="M54.114,271.437v70.224c0,5.027,1.953,5.815,6.589,8.092
			l58.835,27.438c4.204,1.548,6.589,1.391,6.589-3.642v-68.004c0-5.032-1.737-5.5-6.589-8.097l-58.835-27.87
			C55.275,267.521,54.114,266.409,54.114,271.437z M79.769,297.92c0-2.979,0.675-2.318,3.83-1.103l34.198,16.056
			c2.822,1.539,3.83,1.812,3.83,4.793v53.327c0,2.975-1.386,3.069-3.83,2.155l-34.198-15.798c-2.695-1.351-3.83-1.819-3.83-4.794
			V297.92z"/>
		
			<path fill-rule="evenodd" clip-rule="evenodd" fill="#FFFFFF" stroke="#C05A68" stroke-width="0.7929" stroke-linecap="round" stroke-linejoin="round" d="
			M58.165,287.568c0-2.979,0.675-2.318,3.83-1.103l11.694,5.703c2.821,1.539,3.83,1.814,3.83,4.793v53.778
			c0,2.975-1.386,3.068-3.83,2.155l-11.694-5.446c-2.696-1.35-3.83-1.818-3.83-4.793V287.568z"/>
		
			<path fill-rule="evenodd" clip-rule="evenodd" fill="none" stroke="#C05A68" stroke-width="4.7572" stroke-linecap="round" stroke-linejoin="round" d="
			M120.975,379.387c4.384,1.858,12.355-1.57,12.355-6.765V301.75c0-5.193-2.192-6.566-7.575-9.555l-59.39-27.469
			c-5.577-2.125-13.152-0.419-13.152,4.775v73.257c0,5.199,1.729,6.238,6.774,8.363L120.975,379.387z"/>
		
			<path fill-rule="evenodd" clip-rule="evenodd" fill="none" stroke="#C05A68" stroke-width="0.7929" stroke-linecap="round" stroke-linejoin="round" d="
			M79.769,297.92c0-2.979,0.675-2.318,3.83-1.103l34.198,16.056c2.822,1.539,3.83,1.812,3.83,4.793v53.327
			c0,2.975-1.386,3.069-3.83,2.155l-34.198-15.798c-2.695-1.351-3.83-1.819-3.83-4.794V297.92z"/>
		
			<path fill-rule="evenodd" clip-rule="evenodd" fill="none" stroke="#C05A68" stroke-width="1.5857" stroke-linecap="round" stroke-linejoin="round" d="
			M54.114,271.437v70.224c0,5.027,1.953,5.815,6.589,8.092l58.835,27.438c4.204,1.548,6.589,1.391,6.589-3.642v-68.004
			c0-5.032-1.737-5.5-6.589-8.097l-58.835-27.87C55.275,267.521,54.114,266.409,54.114,271.437z"/>
	</g>
</g>
<g>
	<g>
		<circle fill="#C05A68" cx="681.105" cy="245.706" r="14.77"/>
		<path fill="#C05A68" d="M673.873,264.477l10.54,1.615c0,0,9.461,3.77,9.615,13.155s-3.692,36.156-3.692,36.156
			s-2.462,5.386-9.23,10.001l-1.693,12.925c0,0-8.616,13.846-19.078,0V316.48l-4-2.462l3.23-16.156l-5.846-2.923
			c0,0,7.955-19.507,9.539-23.54C664.949,267.092,671.822,265.37,673.873,264.477z"/>
		<path fill="#C05A68" d="M679.412,339.096"/>
		<circle fill="#C05A68" cx="658.104" cy="294.479" r="4.385"/>
	</g>
</g>
<g>
	<text transform="matrix(1 0 0 1 259.2026 345.0488)"><tspan x="0" y="0" fill="#C05A68" font-family="'HelveticaNeue'" font-size="159.1103">shin</tspan><tspan x="291.806" y="0" fill="#C05A68" font-family="'HelveticaNeue-Bold'" font-size="159.1103">d</tspan></text>
</g>
<g>
	<text transform="matrix(1 0 0 1 699.5732 345.0488)" fill="#C05A68" font-family="'HelveticaNeue-Bold'" font-size="159.1103">g</text>
</g>
</svg>
